<?xml version="1.0" encoding="UTF-8" standalone="no"?>
<!DOCTYPE svg PUBLIC "-//W3C//DTD SVG 1.1//EN"
 "http://www.w3.org/Graphics/SVG/1.1/DTD/svg11.dtd">
<!-- Generated by graphviz version 2.40.1 (20161225.0304)
 -->
<!-- Title: G Pages: 1 -->
<svg width="323pt" height="410pt"
 viewBox="0.00 0.00 323.00 410.00" xmlns="http://www.w3.org/2000/svg" xmlns:xlink="http://www.w3.org/1999/xlink">
<g id="graph0" class="graph" transform="scale(1 1) rotate(0) translate(4 406)">
<title>G</title>
<polygon fill="#ffffff" stroke="transparent" points="-4,4 -4,-406 319,-406 319,4 -4,4"/>
<!-- A0 -->
<g id="node1" class="node">
<title>A0</title>
<polygon fill="none" stroke="#000000" points="35,-296 35,-328 112,-328 112,-296 35,-296"/>
<text text-anchor="start" x="44.7455" y="-309" font-family="Helvetica,sans-Serif" font-size="10.00" fill="#000000">+I:ICustomer</text>
<polygon fill="none" stroke="#000000" points="35,-264 35,-296 112,-296 112,-264 35,-264"/>
<text text-anchor="start" x="57.6685" y="-277" font-family="Helvetica,sans-Serif" font-size="10.00" fill="#000000">Greet()</text>
</g>
<!-- A1 -->
<g id="node2" class="node">
<title>A1</title>
<polygon fill="none" stroke="#000000" points="0,-98 0,-130 146,-130 146,-98 0,-98"/>
<text text-anchor="start" x="48.414" y="-111" font-family="Helvetica,sans-Serif" font-size="10.00" fill="#000000">+Customer</text>
<polygon fill="none" stroke="#000000" points="0,-54 0,-98 146,-98 146,-54 0,-54"/>
<text text-anchor="start" x="43.9655" y="-79" font-family="Helvetica,sans-Serif" font-size="10.00" fill="#000000">+name:string</text>
<text text-anchor="start" x="16.891" y="-67" font-family="Helvetica,sans-Serif" font-size="10.00" fill="#000000">&#45;creditCardNumber:string</text>
<polygon fill="none" stroke="#000000" points="0,-10 0,-54 146,-54 146,-10 0,-10"/>
<text text-anchor="start" x="9.5275" y="-35" font-family="Helvetica,sans-Serif" font-size="10.00" fill="#000000">+CreditCardNumber:string:w</text>
<text text-anchor="start" x="43.691" y="-23" font-family="Helvetica,sans-Serif" font-size="10.00" fill="#000000">+Greet():void</text>
</g>
<!-- A0&#45;&gt;A1 -->
<g id="edge2" class="edge">
<title>A0&#45;&gt;A1</title>
<path fill="none" stroke="#000000" d="M73,-253.342C73,-218.6118 73,-169.1623 73,-130.369"/>
<polygon fill="none" stroke="#000000" points="69.5001,-253.6197 73,-263.6197 76.5001,-253.6197 69.5001,-253.6197"/>
</g>
<!-- A2 -->
<g id="node3" class="node">
<title>A2</title>
<polygon fill="none" stroke="#000000" points="155,-370 155,-402 315,-402 315,-370 155,-370"/>
<text text-anchor="start" x="207.915" y="-383" font-family="Helvetica,sans-Serif" font-size="10.00" fill="#000000">+A:HotDrink</text>
<polygon fill="none" stroke="#000000" points="155,-278 155,-370 315,-370 315,-278 155,-278"/>
<text text-anchor="start" x="206.516" y="-351" font-family="Helvetica,sans-Serif" font-size="10.00" fill="#000000">+instant:bool</text>
<text text-anchor="start" x="212.3595" y="-339" font-family="Helvetica,sans-Serif" font-size="10.00" fill="#000000">+milk:bool</text>
<text text-anchor="start" x="209.9945" y="-327" font-family="Helvetica,sans-Serif" font-size="10.00" fill="#000000">&#45;sugar:byte</text>
<text text-anchor="start" x="205.686" y="-315" font-family="Helvetica,sans-Serif" font-size="10.00" fill="#000000">+brand:string</text>
<text text-anchor="start" x="209.5795" y="-303" font-family="Helvetica,sans-Serif" font-size="10.00" fill="#000000">+size:string</text>
<text text-anchor="start" x="188.4675" y="-291" font-family="Helvetica,sans-Serif" font-size="10.00" fill="#000000">+customer:Customer</text>
<polygon fill="none" stroke="#000000" points="155,-234 155,-278 315,-278 315,-234 155,-234"/>
<text text-anchor="start" x="164.563" y="-259" font-family="Helvetica,sans-Serif" font-size="10.00" fill="#000000">+AddSugar(amount:byte):void:v</text>
<text text-anchor="start" x="199.577" y="-247" font-family="Helvetica,sans-Serif" font-size="10.00" fill="#000000">+Steam():void:a</text>
<polygon fill="none" stroke="#000000" points="155,-190 155,-234 315,-234 315,-190 155,-190"/>
<text text-anchor="start" x="228.7515" y="-215" font-family="Helvetica,sans-Serif" font-size="10.00" fill="#000000">+()</text>
<text text-anchor="start" x="202.357" y="-203" font-family="Helvetica,sans-Serif" font-size="10.00" fill="#000000">+(brand:string)</text>
</g>
<!-- A3 -->
<g id="node4" class="node">
<title>A3</title>
<polygon fill="none" stroke="#000000" points="165,-108 165,-140 306,-140 306,-108 165,-108"/>
<text text-anchor="start" x="203.406" y="-121" font-family="Helvetica,sans-Serif" font-size="10.00" fill="#000000">+CupOfCoffee</text>
<polygon fill="none" stroke="#000000" points="165,-76 165,-108 306,-108 306,-76 165,-76"/>
<text text-anchor="start" x="196.737" y="-89" font-family="Helvetica,sans-Serif" font-size="10.00" fill="#000000">+beanType:string</text>
<polygon fill="none" stroke="#000000" points="165,-44 165,-76 306,-76 306,-44 165,-44"/>
<text text-anchor="start" x="200.077" y="-57" font-family="Helvetica,sans-Serif" font-size="10.00" fill="#000000">+Steam():void:o</text>
<polygon fill="none" stroke="#000000" points="165,0 165,-44 306,-44 306,0 165,0"/>
<text text-anchor="start" x="229.2515" y="-25" font-family="Helvetica,sans-Serif" font-size="10.00" fill="#000000">+()</text>
<text text-anchor="start" x="174.5175" y="-13" font-family="Helvetica,sans-Serif" font-size="10.00" fill="#000000">+(brand:string):base(brand)</text>
</g>
<!-- A2&#45;&gt;A3 -->
<g id="edge1" class="edge">
<title>A2&#45;&gt;A3</title>
<path fill="none" stroke="#000000" stroke-dasharray="5,2" d="M235,-179.6621C235,-166.2104 235,-152.8219 235,-140.2599"/>
<polygon fill="#000000" stroke="#000000" points="235,-189.9482 230.5001,-179.9482 235,-184.9482 235.0001,-179.9482 235.0001,-179.9482 235.0001,-179.9482 235,-184.9482 239.5001,-179.9483 235,-189.9482 235,-189.9482"/>
</g>
</g>
</svg>
