<?xml version="1.0" encoding="UTF-8" standalone="no"?>
<!DOCTYPE svg PUBLIC "-//W3C//DTD SVG 1.1//EN"
 "http://www.w3.org/Graphics/SVG/1.1/DTD/svg11.dtd">
<!-- Generated by graphviz version 2.40.1 (20161225.0304)
 -->
<!-- Title: G Pages: 1 -->
<svg width="252pt" height="254pt"
 viewBox="0.00 0.00 252.00 254.00" xmlns="http://www.w3.org/2000/svg" xmlns:xlink="http://www.w3.org/1999/xlink">
<g id="graph0" class="graph" transform="scale(1 1) rotate(0) translate(4 250)">
<title>G</title>
<polygon fill="#ffffff" stroke="transparent" points="-4,4 -4,-250 248,-250 248,4 -4,4"/>
<!-- A0 -->
<g id="node1" class="node">
<title>A0</title>
<polygon fill="none" stroke="#000000" points="68,-214 68,-246 144,-246 144,-214 68,-214"/>
<text text-anchor="start" x="78.915" y="-227" font-family="Helvetica,sans-Serif" font-size="10.00" fill="#000000">+A:HotDrink</text>
<polygon fill="none" stroke="#000000" points="68,-170 68,-214 144,-214 144,-170 68,-170"/>
<text text-anchor="start" x="83.3595" y="-195" font-family="Helvetica,sans-Serif" font-size="10.00" fill="#000000">+Milk:bool</text>
<text text-anchor="start" x="78.905" y="-183" font-family="Helvetica,sans-Serif" font-size="10.00" fill="#000000">+Sugar:byte</text>
<polygon fill="none" stroke="#000000" points="68,-114 68,-170 144,-170 144,-114 68,-114"/>
<text text-anchor="start" x="88.0885" y="-151" font-family="Helvetica,sans-Serif" font-size="10.00" fill="#000000">+Drink()</text>
<text text-anchor="start" x="81.9745" y="-139" font-family="Helvetica,sans-Serif" font-size="10.00" fill="#000000">+AddMilk()</text>
<text text-anchor="start" x="77.5205" y="-127" font-family="Helvetica,sans-Serif" font-size="10.00" fill="#000000">+AddSugar()</text>
</g>
<!-- A2 -->
<g id="node3" class="node">
<title>A2</title>
<polygon fill="none" stroke="#000000" points="0,-32 0,-64 98,-64 98,-32 0,-32"/>
<text text-anchor="start" x="19.8255" y="-45" font-family="Helvetica,sans-Serif" font-size="10.00" fill="#000000">CupOfCoffee</text>
<polygon fill="none" stroke="#000000" points="0,0 0,-32 98,-32 98,0 0,0"/>
<text text-anchor="start" x="9.682" y="-13" font-family="Helvetica,sans-Serif" font-size="10.00" fill="#000000">+BeanType:string</text>
</g>
<!-- A0&#45;&gt;A2 -->
<g id="edge1" class="edge">
<title>A0&#45;&gt;A2</title>
<path fill="none" stroke="#000000" d="M80.5009,-113.7918C75.2617,-100.1884 69.8858,-86.2297 65.0918,-73.7823"/>
<polygon fill="#000000" stroke="#000000" points="61.3857,-64.1594 69.1791,-71.8739 63.1828,-68.8253 64.9798,-73.4912 64.9798,-73.4912 64.9798,-73.4912 63.1828,-68.8253 60.7805,-75.1086 61.3857,-64.1594 61.3857,-64.1594"/>
</g>
<!-- A3 -->
<g id="node4" class="node">
<title>A3</title>
<polygon fill="none" stroke="#000000" points="116,-32 116,-64 210,-64 210,-32 116,-32"/>
<text text-anchor="start" x="139.939" y="-45" font-family="Helvetica,sans-Serif" font-size="10.00" fill="#000000">CupOfTea</text>
<polygon fill="none" stroke="#000000" points="116,0 116,-32 210,-32 210,0 116,0"/>
<text text-anchor="start" x="125.627" y="-13" font-family="Helvetica,sans-Serif" font-size="10.00" fill="#000000">+LeafType:string</text>
</g>
<!-- A0&#45;&gt;A3 -->
<g id="edge2" class="edge">
<title>A0&#45;&gt;A3</title>
<path fill="none" stroke="#000000" d="M131.4991,-113.7918C136.7383,-100.1884 142.1142,-86.2297 146.9082,-73.7823"/>
<polygon fill="#000000" stroke="#000000" points="150.6143,-64.1594 151.2195,-75.1086 148.8172,-68.8253 147.0202,-73.4912 147.0202,-73.4912 147.0202,-73.4912 148.8172,-68.8253 142.8209,-71.8739 150.6143,-64.1594 150.6143,-64.1594"/>
</g>
<!-- A1 -->
<g id="node2" class="node">
<title>A1</title>
<polygon fill="none" stroke="#000000" points="162,-202 162,-246 244,-246 244,-202 162,-202"/>
<text text-anchor="start" x="171.871" y="-227" font-family="Helvetica,sans-Serif" font-size="10.00" fill="#000000">&lt;&lt;Interface&gt;&gt;</text>
<text text-anchor="start" x="192.442" y="-215" font-family="Helvetica,sans-Serif" font-size="10.00" fill="#000000">ICup</text>
<polygon fill="none" stroke="#000000" points="162,-158 162,-202 244,-202 244,-158 162,-158"/>
<text text-anchor="start" x="174.526" y="-183" font-family="Helvetica,sans-Serif" font-size="10.00" fill="#000000">+Color:string</text>
<text text-anchor="start" x="172.2955" y="-171" font-family="Helvetica,sans-Serif" font-size="10.00" fill="#000000">+Volume:byte</text>
<polygon fill="none" stroke="#000000" points="162,-114 162,-158 244,-158 244,-114 162,-114"/>
<text text-anchor="start" x="185.6445" y="-139" font-family="Helvetica,sans-Serif" font-size="10.00" fill="#000000">+Refill()</text>
<text text-anchor="start" x="183.973" y="-127" font-family="Helvetica,sans-Serif" font-size="10.00" fill="#000000">+Wash()</text>
</g>
</g>
</svg>
