<?xml version="1.0" encoding="UTF-8" standalone="no"?>
<!DOCTYPE svg PUBLIC "-//W3C//DTD SVG 1.1//EN"
 "http://www.w3.org/Graphics/SVG/1.1/DTD/svg11.dtd">
<!-- Generated by graphviz version 2.40.1 (20161225.0304)
 -->
<!-- Title: G Pages: 1 -->
<svg width="172pt" height="322pt"
 viewBox="0.00 0.00 171.50 322.00" xmlns="http://www.w3.org/2000/svg" xmlns:xlink="http://www.w3.org/1999/xlink">
<g id="graph0" class="graph" transform="scale(1 1) rotate(0) translate(4 318)">
<title>G</title>
<polygon fill="#ffffff" stroke="transparent" points="-4,4 -4,-318 167.5,-318 167.5,4 -4,4"/>
<!-- A0 -->
<g id="node1" class="node">
<title>A0</title>
<polygon fill="none" stroke="#000000" points="5,-282 5,-314 81,-314 81,-282 5,-282"/>
<text text-anchor="start" x="18.8345" y="-295" font-family="Helvetica,sans-Serif" font-size="10.00" fill="#000000">A:HotDrink</text>
<polygon fill="none" stroke="#000000" points="5,-262 5,-282 81,-282 81,-262 5,-262"/>
<polygon fill="none" stroke="#000000" points="5,-182 5,-262 81,-262 81,-182 5,-182"/>
<text text-anchor="start" x="31.197" y="-243" font-family="Helvetica,sans-Serif" font-size="10.00" fill="#000000">+Milk</text>
<text text-anchor="start" x="26.743" y="-231" font-family="Helvetica,sans-Serif" font-size="10.00" fill="#000000">+Sugar</text>
<text text-anchor="start" x="25.0885" y="-219" font-family="Helvetica,sans-Serif" font-size="10.00" fill="#000000">+Drink()</text>
<text text-anchor="start" x="18.9745" y="-207" font-family="Helvetica,sans-Serif" font-size="10.00" fill="#000000">+AddMilk()</text>
<text text-anchor="start" x="14.5205" y="-195" font-family="Helvetica,sans-Serif" font-size="10.00" fill="#000000">+AddSugar()</text>
</g>
<!-- A2 -->
<g id="node3" class="node">
<title>A2</title>
<polygon fill="none" stroke="#000000" points="0,-100 0,-132 78,-132 78,-100 0,-100"/>
<text text-anchor="start" x="9.8255" y="-113" font-family="Helvetica,sans-Serif" font-size="10.00" fill="#000000">CupOfCoffee</text>
<polygon fill="none" stroke="#000000" points="0,-80 0,-100 78,-100 78,-80 0,-80"/>
<polygon fill="none" stroke="#000000" points="0,0 0,-80 78,-80 78,0 0,0"/>
<text text-anchor="start" x="13.294" y="-61" font-family="Helvetica,sans-Serif" font-size="10.00" fill="#000000">+BeanType</text>
<text text-anchor="start" x="24.138" y="-49" font-family="Helvetica,sans-Serif" font-size="10.00" fill="#000000">+Color</text>
<text text-anchor="start" x="19.1335" y="-37" font-family="Helvetica,sans-Serif" font-size="10.00" fill="#000000">+Volume</text>
<text text-anchor="start" x="21.6445" y="-25" font-family="Helvetica,sans-Serif" font-size="10.00" fill="#000000">+Refill()</text>
<text text-anchor="start" x="19.973" y="-13" font-family="Helvetica,sans-Serif" font-size="10.00" fill="#000000">+Wash()</text>
</g>
<!-- A0&#45;&gt;A2 -->
<g id="edge1" class="edge">
<title>A0&#45;&gt;A2</title>
<path fill="none" stroke="#000000" stroke-dasharray="5,2" d="M41.317,-171.4231C41.0302,-158.3752 40.7345,-144.9214 40.4543,-132.1717"/>
<polygon fill="#000000" stroke="#000000" points="41.5446,-181.779 36.8259,-171.8803 41.4347,-176.7802 41.3248,-171.7814 41.3248,-171.7814 41.3248,-171.7814 41.4347,-176.7802 45.8237,-171.6825 41.5446,-181.779 41.5446,-181.779"/>
</g>
<!-- A3 -->
<g id="node4" class="node">
<title>A3</title>
<polygon fill="none" stroke="#000000" points="97,-100 97,-132 164,-132 164,-100 97,-100"/>
<text text-anchor="start" x="107.439" y="-113" font-family="Helvetica,sans-Serif" font-size="10.00" fill="#000000">CupOfTea</text>
<polygon fill="none" stroke="#000000" points="97,-80 97,-100 164,-100 164,-80 97,-80"/>
<polygon fill="none" stroke="#000000" points="97,0 97,-80 164,-80 164,0 97,0"/>
<text text-anchor="start" x="106.739" y="-61" font-family="Helvetica,sans-Serif" font-size="10.00" fill="#000000">+LeafType</text>
<text text-anchor="start" x="115.638" y="-49" font-family="Helvetica,sans-Serif" font-size="10.00" fill="#000000">+Color</text>
<text text-anchor="start" x="110.6335" y="-37" font-family="Helvetica,sans-Serif" font-size="10.00" fill="#000000">+Volume</text>
<text text-anchor="start" x="113.1445" y="-25" font-family="Helvetica,sans-Serif" font-size="10.00" fill="#000000">+Refill()</text>
<text text-anchor="start" x="111.473" y="-13" font-family="Helvetica,sans-Serif" font-size="10.00" fill="#000000">+Wash()</text>
</g>
<!-- A0&#45;&gt;A3 -->
<g id="edge3" class="edge">
<title>A0&#45;&gt;A3</title>
<path fill="none" stroke="#000000" stroke-dasharray="5,2" d="M79.0502,-172.5847C85.4603,-159.1751 92.0928,-145.3001 98.3685,-132.1717"/>
<polygon fill="#000000" stroke="#000000" points="74.6551,-181.779 74.908,-170.816 76.8115,-177.2679 78.968,-172.7568 78.968,-172.7568 78.968,-172.7568 76.8115,-177.2679 83.0279,-174.6976 74.6551,-181.779 74.6551,-181.779"/>
</g>
<!-- A1 -->
<g id="node2" class="node">
<title>A1</title>
<polygon fill="none" stroke="#000000" points="102,-266 102,-298 155,-298 155,-266 102,-266"/>
<text text-anchor="start" x="115.163" y="-279" font-family="Helvetica,sans-Serif" font-size="10.00" fill="#000000">I:ICup</text>
<polygon fill="none" stroke="#000000" points="102,-198 102,-266 155,-266 155,-198 102,-198"/>
<text text-anchor="start" x="116.5575" y="-247" font-family="Helvetica,sans-Serif" font-size="10.00" fill="#000000">Color</text>
<text text-anchor="start" x="111.553" y="-235" font-family="Helvetica,sans-Serif" font-size="10.00" fill="#000000">Volume</text>
<text text-anchor="start" x="114.064" y="-223" font-family="Helvetica,sans-Serif" font-size="10.00" fill="#000000">Refill()</text>
<text text-anchor="start" x="112.3925" y="-211" font-family="Helvetica,sans-Serif" font-size="10.00" fill="#000000">Wash()</text>
</g>
<!-- A1&#45;&gt;A2 -->
<g id="edge2" class="edge">
<title>A1&#45;&gt;A2</title>
<path fill="none" stroke="#000000" d="M98.921,-188.5351C90.0925,-170.4813 80.3399,-150.5379 71.3125,-132.0771"/>
<polygon fill="none" stroke="#000000" points="95.9075,-190.3401 103.4448,-197.7859 102.1959,-187.2649 95.9075,-190.3401"/>
</g>
<!-- A1&#45;&gt;A3 -->
<g id="edge4" class="edge">
<title>A1&#45;&gt;A3</title>
<path fill="none" stroke="#000000" d="M128.6644,-187.5394C128.8599,-169.7499 129.0747,-150.1991 129.2739,-132.0771"/>
<polygon fill="none" stroke="#000000" points="125.162,-187.748 128.5518,-197.7859 132.1616,-187.825 125.162,-187.748"/>
</g>
</g>
</svg>
