<?xml version="1.0" encoding="UTF-8" standalone="no"?>
<!DOCTYPE svg PUBLIC "-//W3C//DTD SVG 1.1//EN"
 "http://www.w3.org/Graphics/SVG/1.1/DTD/svg11.dtd">
<!-- Generated by graphviz version 2.40.1 (20161225.0304)
 -->
<!-- Title: G Pages: 1 -->
<svg width="310pt" height="322pt"
 viewBox="0.00 0.00 309.50 322.00" xmlns="http://www.w3.org/2000/svg" xmlns:xlink="http://www.w3.org/1999/xlink">
<g id="graph0" class="graph" transform="scale(1 1) rotate(0) translate(4 318)">
<title>G</title>
<polygon fill="#ffffff" stroke="transparent" points="-4,4 -4,-318 305.5,-318 305.5,4 -4,4"/>
<!-- A0 -->
<g id="node1" class="node">
<title>A0</title>
<polygon fill="none" stroke="#000000" points="106,-282 106,-314 212,-314 212,-282 106,-282"/>
<text text-anchor="start" x="139.963" y="-295" font-family="Helvetica,sans-Serif" font-size="10.00" fill="#000000">+A:Book</text>
<polygon fill="none" stroke="#000000" points="106,-238 106,-282 212,-282 212,-238 106,-238"/>
<text text-anchor="start" x="123.4425" y="-263" font-family="Helvetica,sans-Serif" font-size="10.00" fill="#000000">&#45;bookTitle:string</text>
<text text-anchor="start" x="128.2965" y="-251" font-family="Helvetica,sans-Serif" font-size="10.00" fill="#000000">+author:string</text>
<polygon fill="none" stroke="#000000" points="106,-170 106,-238 212,-238 212,-170 106,-170"/>
<text text-anchor="start" x="121.6325" y="-219" font-family="Helvetica,sans-Serif" font-size="10.00" fill="#000000">+BookTitle:string</text>
<text text-anchor="start" x="117.1835" y="-207" font-family="Helvetica,sans-Serif" font-size="10.00" fill="#000000">+BeginReading():a</text>
<text text-anchor="start" x="116.6335" y="-195" font-family="Helvetica,sans-Serif" font-size="10.00" fill="#000000">+FinishReading():a</text>
<text text-anchor="start" x="115.527" y="-183" font-family="Helvetica,sans-Serif" font-size="10.00" fill="#000000">+ReadSummary():v</text>
</g>
<!-- A1 -->
<g id="node2" class="node">
<title>A1</title>
<polygon fill="none" stroke="#000000" points="39,-88 39,-120 146,-120 146,-88 39,-88"/>
<text text-anchor="start" x="65.684" y="-101" font-family="Helvetica,sans-Serif" font-size="10.00" fill="#000000">+Paperback</text>
<polygon fill="none" stroke="#000000" points="39,-68 39,-88 146,-88 146,-68 39,-68"/>
<polygon fill="none" stroke="#000000" points="39,0 39,-68 146,-68 146,0 39,0"/>
<text text-anchor="start" x="66.5255" y="-49" font-family="Helvetica,sans-Serif" font-size="10.00" fill="#000000">+FlipPage()</text>
<text text-anchor="start" x="48.8885" y="-37" font-family="Helvetica,sans-Serif" font-size="10.00" fill="#000000">+DogEar(),+Close()</text>
<text text-anchor="start" x="50.6835" y="-25" font-family="Helvetica,sans-Serif" font-size="10.00" fill="#000000">+BeginReading():o</text>
<text text-anchor="start" x="50.1335" y="-13" font-family="Helvetica,sans-Serif" font-size="10.00" fill="#000000">+FinishReading():o</text>
</g>
<!-- A0&#45;&gt;A1 -->
<g id="edge2" class="edge">
<title>A0&#45;&gt;A1</title>
<path fill="none" stroke="#000000" stroke-dasharray="5,2" d="M128.84,-160.0729C123.8861,-146.616 118.8338,-132.8917 114.1222,-120.0931"/>
<polygon fill="#000000" stroke="#000000" points="132.4236,-169.8074 124.7459,-161.9777 130.6962,-165.1152 128.9689,-160.4231 128.9689,-160.4231 128.9689,-160.4231 130.6962,-165.1152 133.1918,-158.8684 132.4236,-169.8074 132.4236,-169.8074"/>
</g>
<!-- A2 -->
<g id="node3" class="node">
<title>A2</title>
<polygon fill="none" stroke="#000000" points="188,-88 188,-120 297,-120 297,-88 188,-88"/>
<text text-anchor="start" x="225.6885" y="-101" font-family="Helvetica,sans-Serif" font-size="10.00" fill="#000000">+Kindle</text>
<polygon fill="none" stroke="#000000" points="188,-68 188,-88 297,-88 297,-68 188,-68"/>
<polygon fill="none" stroke="#000000" points="188,0 188,-68 297,-68 297,0 188,0"/>
<text text-anchor="start" x="223.754" y="-49" font-family="Helvetica,sans-Serif" font-size="10.00" fill="#000000">+Scroll()</text>
<text text-anchor="start" x="197.778" y="-37" font-family="Helvetica,sans-Serif" font-size="10.00" fill="#000000">+Bookmark(),+Exit()</text>
<text text-anchor="start" x="200.6835" y="-25" font-family="Helvetica,sans-Serif" font-size="10.00" fill="#000000">+BeginReading():o</text>
<text text-anchor="start" x="200.1335" y="-13" font-family="Helvetica,sans-Serif" font-size="10.00" fill="#000000">+FinishReading():o</text>
</g>
<!-- A0&#45;&gt;A2 -->
<g id="edge1" class="edge">
<title>A0&#45;&gt;A2</title>
<path fill="none" stroke="#000000" stroke-dasharray="5,2" d="M196.1836,-160.4648C202.3777,-146.8826 208.7015,-133.016 214.5949,-120.0931"/>
<polygon fill="#000000" stroke="#000000" points="191.923,-169.8074 191.9781,-158.8416 193.9977,-165.2581 196.0724,-160.7088 196.0724,-160.7088 196.0724,-160.7088 193.9977,-165.2581 200.1667,-162.5761 191.923,-169.8074 191.923,-169.8074"/>
</g>
<!-- A3 -->
<g id="node4" class="node">
<title>A3</title>
<polygon fill="none" stroke="#000000" points="231,-264 231,-296 302,-296 302,-264 231,-264"/>
<text text-anchor="start" x="247.463" y="-277" font-family="Helvetica,sans-Serif" font-size="10.00" fill="#000000">+IEBook</text>
<polygon fill="none" stroke="#000000" points="231,-244 231,-264 302,-264 302,-244 231,-244"/>
<polygon fill="none" stroke="#000000" points="231,-188 231,-244 302,-244 302,-188 231,-188"/>
<text text-anchor="start" x="250.6735" y="-225" font-family="Helvetica,sans-Serif" font-size="10.00" fill="#000000">Scroll()</text>
<text text-anchor="start" x="240.669" y="-213" font-family="Helvetica,sans-Serif" font-size="10.00" fill="#000000">Bookmark()</text>
<text text-anchor="start" x="254.8375" y="-201" font-family="Helvetica,sans-Serif" font-size="10.00" fill="#000000">Exit()</text>
</g>
<!-- A3&#45;&gt;A2 -->
<g id="edge3" class="edge">
<title>A3&#45;&gt;A2</title>
<path fill="none" stroke="#000000" d="M257.5553,-177.9609C255.0827,-159.2108 252.3889,-138.7822 249.9483,-120.2746"/>
<polygon fill="none" stroke="#000000" points="254.0868,-178.4302 258.8642,-187.8868 261.0267,-177.515 254.0868,-178.4302"/>
</g>
<!-- A4 -->
<g id="node5" class="node">
<title>A4</title>
<polygon fill="none" stroke="#000000" points="0,-264 0,-296 88,-296 88,-264 0,-264"/>
<text text-anchor="start" x="9.685" y="-277" font-family="Helvetica,sans-Serif" font-size="10.00" fill="#000000">+IPhysicalBook</text>
<polygon fill="none" stroke="#000000" points="0,-244 0,-264 88,-264 88,-244 0,-244"/>
<polygon fill="none" stroke="#000000" points="0,-188 0,-244 88,-244 88,-188 0,-188"/>
<text text-anchor="start" x="20.945" y="-225" font-family="Helvetica,sans-Serif" font-size="10.00" fill="#000000">FlipPage()</text>
<text text-anchor="start" x="23.724" y="-213" font-family="Helvetica,sans-Serif" font-size="10.00" fill="#000000">DogEar()</text>
<text text-anchor="start" x="27.893" y="-201" font-family="Helvetica,sans-Serif" font-size="10.00" fill="#000000">Close()</text>
</g>
<!-- A4&#45;&gt;A1 -->
<g id="edge4" class="edge">
<title>A4&#45;&gt;A1</title>
<path fill="none" stroke="#000000" d="M60.8894,-177.9609C65.8345,-159.2108 71.2223,-138.7822 76.1034,-120.2746"/>
<polygon fill="none" stroke="#000000" points="57.4376,-177.3248 58.2716,-187.8868 64.2061,-179.11 57.4376,-177.3248"/>
</g>
</g>
</svg>
