<svg width="5830" height="2770" xmlns="http://www.w3.org/2000/svg" xmlns:xlink="http://www.w3.org/1999/xlink" xml:space="preserve" overflow="hidden"><g transform="translate(9 3)"><rect x="-5.5" y="0.499836" width="4406" height="2763" stroke="#000000" stroke-width="6.875" stroke-miterlimit="8" fill="none"/><rect x="4859.5" y="933.5" width="958" height="500" stroke="#000000" stroke-width="6.875" stroke-miterlimit="8" fill="none"/><rect x="0.499836" y="0.499836" width="4400" height="434" stroke="#000000" stroke-width="6.875" stroke-miterlimit="8" fill="none"/><rect x="35.4999" y="478.5" width="1543" height="188" stroke="#000000" stroke-width="6.875" stroke-miterlimit="8" fill="none"/><text font-family="Calibri,Calibri_MSFontService,sans-serif" font-weight="400" font-size="83" transform="matrix(1 0 0 1 199.915 599)">Search for food term</text><g><g><g><path d="M110.437 97.6498 94.2915 81.504C92.0956 79.3082 89.1248 78.5332 86.2831 79.0498L80.5998 73.3665C85.6373 66.9082 88.6081 58.6415 88.6081 49.8582 88.6081 28.5458 71.1707 11.1083 49.8582 11.1083 28.5458 11.1083 11.1083 28.5458 11.1083 49.8582 11.1083 71.1707 28.5458 88.6081 49.8582 88.6081 58.6415 88.6081 66.779 85.6373 73.3665 80.5998L79.0498 86.2831C78.5332 89.1248 79.3082 92.0956 81.504 94.2915L97.6498 110.437C99.4581 112.246 101.783 113.15 104.108 113.15 106.433 113.15 108.758 112.246 110.566 110.437 113.925 106.821 113.925 101.137 110.437 97.6498ZM49.7291 80.729C32.6791 80.729 18.7291 66.779 18.7291 49.7291 18.7291 32.6791 32.6791 18.7291 49.7291 18.7291 66.779 18.7291 80.729 32.6791 80.729 49.7291 80.729 66.779 66.779 80.729 49.7291 80.729Z" transform="matrix(1 0 0 1 68.0001 511)"/></g></g></g><rect x="68.4999" y="63.5001" width="969" height="317" stroke="#000000" stroke-width="4.58333" stroke-miterlimit="8" fill="#FFFFFF"/><text font-family="Calibri,Calibri_MSFontService,sans-serif" font-weight="400" font-size="83" transform="matrix(1 0 0 1 455.294 249)">LOGO</text><rect x="1669.5" y="80.4999" width="1119" height="283" stroke="#000000" stroke-width="6.875" stroke-miterlimit="8" fill="none"/><text font-family="Calibri,Calibri_MSFontService,sans-serif" font-weight="400" font-size="83" transform="matrix(1 0 0 1 2120.86 249)">Dining</text><rect x="1809.5" y="478.5" width="567" height="188" stroke="#000000" stroke-width="6.875" stroke-miterlimit="8" fill="none"/><text font-family="Calibri,Calibri_MSFontService,sans-serif" font-weight="400" font-size="83" transform="matrix(1 0 0 1 1841.71 599)">Filter options</text><g><g><g><path d="M1717.63 576.646 1717.63 641.977 1731.38 628.227 1731.38 576.646 1782.94 525.062 1666.06 525.062ZM1728.95 574.219 1727.94 575.222 1727.94 626.799 1721.06 633.674 1721.06 575.222 1720.06 574.215 1674.36 528.5 1774.65 528.5Z"/></g></g></g><g><g><g><path d="M2491.15 607.854C2491.15 608.809 2491.92 609.583 2492.88 609.583 2493.83 609.583 2494.6 608.809 2494.6 607.854L2494.6 508.32C2494.6 508.31 2494.61 508.303 2494.62 508.303 2494.63 508.303 2494.63 508.305 2494.63 508.308L2517.59 531.264C2518.28 531.928 2519.37 531.909 2520.04 531.222 2520.68 530.552 2520.68 529.489 2520.04 528.819L2494.1 502.882C2493.42 502.207 2492.33 502.207 2491.65 502.882L2465.72 528.819C2465.05 529.506 2465.07 530.601 2465.76 531.264 2466.43 531.911 2467.49 531.911 2468.16 531.264L2491.12 508.308C2491.12 508.301 2491.13 508.301 2491.14 508.308 2491.14 508.311 2491.15 508.315 2491.15 508.32Z"/><path d="M2579.84 618.736 2556.88 641.692C2556.88 641.699 2556.87 641.699 2556.86 641.692 2556.86 641.689 2556.85 641.685 2556.85 641.68L2556.85 542.146C2556.85 541.191 2556.08 540.417 2555.12 540.417 2554.17 540.417 2553.4 541.191 2553.4 542.146L2553.4 641.68C2553.4 641.69 2553.39 641.697 2553.38 641.697 2553.37 641.697 2553.37 641.695 2553.37 641.692L2530.41 618.736C2529.72 618.072 2528.63 618.091 2527.97 618.778 2527.32 619.448 2527.32 620.511 2527.97 621.181L2553.9 647.118C2554.58 647.793 2555.67 647.793 2556.35 647.118L2582.29 621.181C2582.95 620.494 2582.93 619.399 2582.24 618.736 2581.57 618.089 2580.51 618.089 2579.84 618.736Z"/></g></g></g><rect x="2652.5" y="475.5" width="567" height="188" stroke="#000000" stroke-width="6.875" stroke-miterlimit="8" fill="none"/><text font-family="Calibri,Calibri_MSFontService,sans-serif" font-weight="400" font-size="83" transform="matrix(1 0 0 1 2685.03 596)">sort options</text><text font-family="Calibri,Calibri_MSFontService,sans-serif" font-weight="700" font-size="83" text-decoration="underline" transform="matrix(1 0 0 1 100.571 813)">On Campus Dining</text><rect x="3921.5" y="113.5" width="366" height="208" stroke="#000000" stroke-width="6.875" stroke-miterlimit="8" fill="none"/><text font-family="Calibri,Calibri_MSFontService,sans-serif" font-weight="400" font-size="83" transform="matrix(1 0 0 1 4012.74 195)">To on </text><text font-family="Calibri,Calibri_MSFontService,sans-serif" font-weight="400" font-size="83" transform="matrix(1 0 0 1 3965.23 294)">demand</text><rect x="192.5" y="931.5" width="1109" height="568" stroke="#000000" stroke-width="6.875" stroke-miterlimit="8" fill="none"/><text font-family="Calibri,Calibri_MSFontService,sans-serif" font-weight="400" font-size="83" transform="matrix(1 0 0 1 698.304 1243)">Pic</text><rect x="192.5" y="1499.5" width="1109" height="228" stroke="#000000" stroke-width="6.875" stroke-miterlimit="8" fill="none"/><text font-family="Calibri,Calibri_MSFontService,sans-serif" font-weight="700" font-size="64" transform="matrix(1 0 0 1 224.714 1558)">Name</text><text font-family="Calibri,Calibri_MSFontService,sans-serif" font-weight="400" font-size="64" transform="matrix(1 0 0 1 224.714 1635)">OPEN </text><text font-family="Calibri,Calibri_MSFontService,sans-serif" font-weight="400" font-size="64" transform="matrix(1 0 0 1 387.423 1635)">-</text><text font-family="Calibri,Calibri_MSFontService,sans-serif" font-weight="400" font-size="64" transform="matrix(1 0 0 1 421.225 1635)">Hours X:XX</text><text font-family="Calibri,Calibri_MSFontService,sans-serif" font-weight="400" font-size="64" transform="matrix(1 0 0 1 706.583 1635)">-</text><text font-family="Calibri,Calibri_MSFontService,sans-serif" font-weight="400" font-size="64" transform="matrix(1 0 0 1 726.062 1635)">X:XX </text><text font-family="Calibri,Calibri_MSFontService,sans-serif" font-weight="400" font-size="64" transform="matrix(1 0 0 1 296.329 1712)">Wait time ~XX min</text><path d="M226.5 1680C226.5 1664.81 237.917 1652.5 252 1652.5 266.083 1652.5 277.5 1664.81 277.5 1680 277.5 1695.19 266.083 1707.5 252 1707.5 237.917 1707.5 226.5 1695.19 226.5 1680Z" stroke="#172C51" stroke-width="4.58333" stroke-miterlimit="8" fill="#00B050" fill-rule="evenodd"/><rect x="1460.5" y="931.5" width="1109" height="568" stroke="#000000" stroke-width="6.875" stroke-miterlimit="8" fill="none"/><text font-family="Calibri,Calibri_MSFontService,sans-serif" font-weight="400" font-size="83" transform="matrix(1 0 0 1 1966.55 1243)">Pic</text><rect x="1460.5" y="1504.5" width="1109" height="228" stroke="#000000" stroke-width="6.875" stroke-miterlimit="8" fill="none"/><text font-family="Calibri,Calibri_MSFontService,sans-serif" font-weight="700" font-size="64" transform="matrix(1 0 0 1 1492.97 1563)">Name</text><text font-family="Calibri,Calibri_MSFontService,sans-serif" font-weight="400" font-size="64" transform="matrix(1 0 0 1 1492.97 1640)">OPEN </text><text font-family="Calibri,Calibri_MSFontService,sans-serif" font-weight="400" font-size="64" transform="matrix(1 0 0 1 1655.67 1640)">-</text><text font-family="Calibri,Calibri_MSFontService,sans-serif" font-weight="400" font-size="64" transform="matrix(1 0 0 1 1689.48 1640)">Hours X:XX</text><text font-family="Calibri,Calibri_MSFontService,sans-serif" font-weight="400" font-size="64" transform="matrix(1 0 0 1 1974.83 1640)">-</text><text font-family="Calibri,Calibri_MSFontService,sans-serif" font-weight="400" font-size="64" transform="matrix(1 0 0 1 1994.31 1640)">X:XX </text><text font-family="Calibri,Calibri_MSFontService,sans-serif" font-weight="400" font-size="64" transform="matrix(1 0 0 1 1564.58 1717)">Wait time ~XX min</text><path d="M1495.5 1684.5C1495.5 1669.59 1506.69 1657.5 1520.5 1657.5 1534.31 1657.5 1545.5 1669.59 1545.5 1684.5 1545.5 1699.41 1534.31 1711.5 1520.5 1711.5 1506.69 1711.5 1495.5 1699.41 1495.5 1684.5Z" stroke="#172C51" stroke-width="4.58333" stroke-miterlimit="8" fill="#FFC000" fill-rule="evenodd"/><rect x="2728.5" y="931.5" width="1110" height="568" stroke="#000000" stroke-width="6.875" stroke-miterlimit="8" fill="none"/><text font-family="Calibri,Calibri_MSFontService,sans-serif" font-weight="400" font-size="83" transform="matrix(1 0 0 1 3234.81 1243)">Pic</text><rect x="2725.5" y="1504.5" width="1110" height="228" stroke="#000000" stroke-width="6.875" stroke-miterlimit="8" fill="none"/><text font-family="Calibri,Calibri_MSFontService,sans-serif" font-weight="700" font-size="64" transform="matrix(1 0 0 1 2758.07 1563)">Name</text><text font-family="Calibri,Calibri_MSFontService,sans-serif" font-weight="400" font-size="64" transform="matrix(1 0 0 1 2758.07 1640)">OPEN </text><text font-family="Calibri,Calibri_MSFontService,sans-serif" font-weight="400" font-size="64" transform="matrix(1 0 0 1 2920.78 1640)">-</text><text font-family="Calibri,Calibri_MSFontService,sans-serif" font-weight="400" font-size="64" transform="matrix(1 0 0 1 2954.58 1640)">Hours X:XX</text><text font-family="Calibri,Calibri_MSFontService,sans-serif" font-weight="400" font-size="64" transform="matrix(1 0 0 1 3239.94 1640)">-</text><text font-family="Calibri,Calibri_MSFontService,sans-serif" font-weight="400" font-size="64" transform="matrix(1 0 0 1 3259.42 1640)">X:XX </text><text font-family="Calibri,Calibri_MSFontService,sans-serif" font-weight="400" font-size="64" transform="matrix(1 0 0 1 2829.69 1717)">Wait time ~XX min</text><path d="M2760.5 1684.5C2760.5 1669.59 2771.69 1657.5 2785.5 1657.5 2799.31 1657.5 2810.5 1669.59 2810.5 1684.5 2810.5 1699.41 2799.31 1711.5 2785.5 1711.5 2771.69 1711.5 2760.5 1699.41 2760.5 1684.5Z" stroke="#172C51" stroke-width="4.58333" stroke-miterlimit="8" fill="#FF0000" fill-rule="evenodd"/><rect x="192.5" y="1849.5" width="1109" height="568" stroke="#000000" stroke-width="6.875" stroke-miterlimit="8" fill="none"/><text font-family="Calibri,Calibri_MSFontService,sans-serif" font-weight="400" font-size="83" transform="matrix(1 0 0 1 698.304 2160)">Pic</text><rect x="192.5" y="2417.5" width="1109" height="228" stroke="#000000" stroke-width="6.875" stroke-miterlimit="8" fill="none"/><text font-family="Calibri,Calibri_MSFontService,sans-serif" font-weight="700" font-size="64" transform="matrix(1 0 0 1 224.714 2475)">Name</text><text font-family="Calibri,Calibri_MSFontService,sans-serif" font-weight="400" font-size="64" transform="matrix(1 0 0 1 224.714 2552)">OPEN </text><text font-family="Calibri,Calibri_MSFontService,sans-serif" font-weight="400" font-size="64" transform="matrix(1 0 0 1 387.423 2552)">-</text><text font-family="Calibri,Calibri_MSFontService,sans-serif" font-weight="400" font-size="64" transform="matrix(1 0 0 1 421.225 2552)">Hours X:XX</text><text font-family="Calibri,Calibri_MSFontService,sans-serif" font-weight="400" font-size="64" transform="matrix(1 0 0 1 706.583 2552)">-</text><text font-family="Calibri,Calibri_MSFontService,sans-serif" font-weight="400" font-size="64" transform="matrix(1 0 0 1 726.062 2552)">X:XX </text><text font-family="Calibri,Calibri_MSFontService,sans-serif" font-weight="400" font-size="64" transform="matrix(1 0 0 1 296.329 2629)">Wait time ~XX min</text><path d="M226.5 2597.5C226.5 2582.59 237.917 2570.5 252 2570.5 266.083 2570.5 277.5 2582.59 277.5 2597.5 277.5 2612.41 266.083 2624.5 252 2624.5 237.917 2624.5 226.5 2612.41 226.5 2597.5Z" stroke="#172C51" stroke-width="4.58333" stroke-miterlimit="8" fill="#00B050" fill-rule="evenodd"/><rect x="1460.5" y="1849.5" width="1109" height="568" stroke="#000000" stroke-width="6.875" stroke-miterlimit="8" fill="none"/><text font-family="Calibri,Calibri_MSFontService,sans-serif" font-weight="400" font-size="83" transform="matrix(1 0 0 1 1966.55 2160)">Pic</text><rect x="1460.5" y="2422.5" width="1109" height="228" stroke="#000000" stroke-width="6.875" stroke-miterlimit="8" fill="none"/><text font-family="Calibri,Calibri_MSFontService,sans-serif" font-weight="700" font-size="64" transform="matrix(1 0 0 1 1492.97 2480)">Name</text><text font-family="Calibri,Calibri_MSFontService,sans-serif" font-weight="400" font-size="64" transform="matrix(1 0 0 1 1492.97 2557)">OPEN </text><text font-family="Calibri,Calibri_MSFontService,sans-serif" font-weight="400" font-size="64" transform="matrix(1 0 0 1 1655.67 2557)">-</text><text font-family="Calibri,Calibri_MSFontService,sans-serif" font-weight="400" font-size="64" transform="matrix(1 0 0 1 1689.48 2557)">Hours X:XX</text><text font-family="Calibri,Calibri_MSFontService,sans-serif" font-weight="400" font-size="64" transform="matrix(1 0 0 1 1974.83 2557)">-</text><text font-family="Calibri,Calibri_MSFontService,sans-serif" font-weight="400" font-size="64" transform="matrix(1 0 0 1 1994.31 2557)">X:XX </text><text font-family="Calibri,Calibri_MSFontService,sans-serif" font-weight="400" font-size="64" transform="matrix(1 0 0 1 1564.58 2634)">Wait time ~XX min</text><path d="M1495.5 2602.5C1495.5 2587.59 1506.69 2575.5 1520.5 2575.5 1534.31 2575.5 1545.5 2587.59 1545.5 2602.5 1545.5 2617.41 1534.31 2629.5 1520.5 2629.5 1506.69 2629.5 1495.5 2617.41 1495.5 2602.5Z" stroke="#172C51" stroke-width="4.58333" stroke-miterlimit="8" fill="#FFC000" fill-rule="evenodd"/><rect x="2728.5" y="1849.5" width="1110" height="568" stroke="#000000" stroke-width="6.875" stroke-miterlimit="8" fill="none"/><text font-family="Calibri,Calibri_MSFontService,sans-serif" font-weight="400" font-size="83" transform="matrix(1 0 0 1 3234.81 2160)">Pic</text><rect x="2725.5" y="2422.5" width="1110" height="228" stroke="#000000" stroke-width="6.875" stroke-miterlimit="8" fill="none"/><text font-family="Calibri,Calibri_MSFontService,sans-serif" font-weight="700" font-size="64" transform="matrix(1 0 0 1 2758.07 2480)">Name</text><text font-family="Calibri,Calibri_MSFontService,sans-serif" font-weight="400" font-size="64" transform="matrix(1 0 0 1 2758.07 2557)">OPEN </text><text font-family="Calibri,Calibri_MSFontService,sans-serif" font-weight="400" font-size="64" transform="matrix(1 0 0 1 2920.78 2557)">-</text><text font-family="Calibri,Calibri_MSFontService,sans-serif" font-weight="400" font-size="64" transform="matrix(1 0 0 1 2954.58 2557)">Hours X:XX</text><text font-family="Calibri,Calibri_MSFontService,sans-serif" font-weight="400" font-size="64" transform="matrix(1 0 0 1 3239.94 2557)">-</text><text font-family="Calibri,Calibri_MSFontService,sans-serif" font-weight="400" font-size="64" transform="matrix(1 0 0 1 3259.42 2557)">X:XX </text><text font-family="Calibri,Calibri_MSFontService,sans-serif" font-weight="400" font-size="64" transform="matrix(1 0 0 1 2829.69 2634)">Wait time ~XX min</text><path d="M2760.5 2602.5C2760.5 2587.59 2771.69 2575.5 2785.5 2575.5 2799.31 2575.5 2810.5 2587.59 2810.5 2602.5 2810.5 2617.41 2799.31 2629.5 2785.5 2629.5 2771.69 2629.5 2760.5 2617.41 2760.5 2602.5Z" stroke="#172C51" stroke-width="4.58333" stroke-miterlimit="8" fill="#FF0000" fill-rule="evenodd"/></g></svg>